<svg viewBox="0 0 512 512" xmlns="http://www.w3.org/2000/svg" fill-rule="evenodd" clip-rule="evenodd" stroke-linejoin="round" stroke-miterlimit="2"><g transform="translate(16 33.18) scale(5.6844)"><clipPath id="prefix__a"><path d="M0 .697h84.442v77.004H0z"/></clipPath><g clip-path="url(#prefix__a)" fill-rule="nonzero"><path d="M13.631.735l.02-.034L77.78 14.872h6.662V77.7H11.988a4.55 4.55 0 01-4.55-4.55v-6.156L13.631.735z" fill="#67074c"/><path d="M78.229 63.7H13.631V.735l.02-.038h60.028a4.55 4.55 0 014.55 4.55V63.7z" fill="#a90c7c"/><path d="M0 71.925L13.651 63.7V.697L0 8.922v63.003z" fill="#d44fae"/></g></g><path d="M201.158 244.014v-55.002c0-45.367 28.638-76.273 80.81-76.273 45.65 0 74.289 21.55 75.704 63.222h-45.646c-1.136-17.292-10.493-27.496-29.49-27.496-19.85 0-31.19 13.035-31.19 34.306v67.485c0 21.265 11.056 34.305 30.906 34.305 20.412 0 29.2-10.487 30.053-29.485h46.22c-2.837 44.52-30.054 65.212-77.694 65.212-49.335 0-79.673-30.9-79.673-76.274z" fill="#fff" fill-rule="nonzero"/></svg>