<?xml version="1.0" encoding="utf-8"?>
<svg version="1.1" xmlns="http://www.w3.org/2000/svg" viewBox="0 0 335 60">
<style type="text/css">
	.st0{fill-rule:evenodd;clip-rule:evenodd;fill:#0071BC;}
	.st1{fill-rule:evenodd;clip-rule:evenodd;fill:#FFFFFF;}
	.st2{fill-rule:evenodd;clip-rule:evenodd;fill:#3F4750;}
</style>
<path class="st0" d="M0,0h59.6v60.1H0V0z"/>
<path class="st1" d="M46.6,24.1v19.2h5.7V24.1H46.6z M46.6,16.2v5.8h5.7v-5.8C52.3,16.2,46.6,16.2,46.6,16.2z M12.1,17.6
	C5,21,5,29.6,5,29.7C4.9,33.5,6.4,37.1,9,39.8c3.3,3.4,8.1,3.6,8.9,3.6h4.3v-5.5h-4.6c-4.1,0-6.1-4.3-6.1-4.3c-1.2-2.8-1-6,0.6-8.6
	c1.5-2,3.9-3.2,6.5-3.2h3.7v-5.6l-5.9,0.1C14.9,16.4,13.4,16.8,12.1,17.6L12.1,17.6z M43.8,16.1c-11.4,0-12,10.7-12,10.8l-0.2,5.2
	c0.1,1.5-0.5,3-1.5,4c-2,1.9-5.2,1.8-5.2,1.8h-0.4v5.5h0.3c12.4,0,12.6-10.9,12.6-11l0.1-5c-0.1-1.5,0.5-3,1.5-4
	c1.4-1.1,3.1-1.6,4.8-1.5h0.4v-5.7H43.8z"/>
<path class="st2" d="M72.1,40.6l1.3-0.2c0.2,0.9,0.4,1.4,1.1,1.4c0.4,0,0.7-0.3,0.7-0.7c0,0,0-0.1,0-0.1c0-1.4-3-2-3-4.2
	c-0.1-1.1,0.8-2,1.9-2.1c0.1,0,0.2,0,0.3,0c1.4,0,1.9,0.9,2.2,2.3l-1.4,0.3c-0.2-0.8-0.4-1.3-0.9-1.3c-0.3,0-0.6,0.2-0.6,0.5
	c0,0,0,0.1,0,0.1c0,1.4,3,2,3,4.2c0,1.1-0.9,2.1-2,2.1c-0.1,0-0.2,0-0.2,0C72.9,43.1,72.4,42,72.1,40.6z M79.1,36.2h-1.5v-1.3h4.5
	v1.3h-1.5V43h-1.6L79.1,36.2L79.1,36.2z M87.9,43h-1.5l-1-2.9h-0.6V43h-1.5v-8.1h2c1.5,0,2.5,0.7,2.5,2.6c0.1,0.9-0.3,1.7-1,2.2
	L87.9,43z M85.3,38.9c0.7,0,1-0.3,1-1.4c0-1-0.3-1.3-1-1.3h-0.5v2.7H85.3L85.3,38.9z M89.1,40.4v-5.5h1.5v5.4c0,1,0.2,1.4,0.8,1.4
	s0.8-0.4,0.8-1.4v-5.5h1.4v5.5c0,1.7-0.6,2.7-2.3,2.7C89.7,43.1,89.1,42.1,89.1,40.4z M94.9,38.9c0-3,1-4.1,2.6-4.1s2.2,1,2.3,3
	l-1.5,0.1c-0.1-1.3-0.3-1.7-0.9-1.7c-0.7,0-1,0.9-1,2.8c0,1.9,0.3,2.8,1,2.8c0.6,0,0.8-0.4,0.9-1.8l1.5,0.1c-0.2,1.7-0.8,3-2.4,3
	S94.9,41.9,94.9,38.9L94.9,38.9z M102.1,36.2h-1.5v-1.3h4.5v1.3h-1.5V43h-1.6V36.2L102.1,36.2z M106.2,40.4v-5.5h1.5v5.4
	c0,1,0.2,1.4,0.8,1.4s0.8-0.4,0.8-1.4v-5.5h1.4v5.5c0,1.7-0.6,2.7-2.3,2.7C106.8,43.1,106.2,42.1,106.2,40.4L106.2,40.4z M116.9,43
	h-1.5l-1-2.9h-0.6V43h-1.5v-8.1h2c1.5,0,2.5,0.7,2.5,2.6c0.1,0.9-0.3,1.7-1,2.2L116.9,43z M114.3,38.9c0.7,0,1-0.3,1-1.4
	c0-1-0.3-1.3-1-1.3h-0.5v2.7H114.3L114.3,38.9z M119,43h-1.3l1.8-8.1h1.5l1.8,8.1h-1.5l-0.4-1.8h-1.6L119,43z M120.6,39.4
	c-0.2-0.9-0.3-1.4-0.4-2.6h0c-0.1,1.2-0.3,1.7-0.4,2.6l-0.1,0.8h1.2L120.6,39.4z M123.9,34.9h1.5v6.8h2.3V43h-3.8L123.9,34.9
	L123.9,34.9z M132.3,43h-1.3l1.8-8.1h1.5l1.8,8.1h-1.5l-0.4-1.8h-1.6L132.3,43z M133.9,39.4c-0.2-0.9-0.3-1.4-0.4-2.6h0
	c-0.1,1.2-0.3,1.7-0.4,2.6l-0.1,0.8h1.2L133.9,39.4z M137.2,34.9h1.6l1.3,3.4c0.2,0.6,0.4,1.1,0.5,1.6h0v-5h1.2V43h-1.3l-1.6-4
	c-0.2-0.6-0.5-1.3-0.6-1.6h0V43h-1.2L137.2,34.9L137.2,34.9z M143.4,34.9h1.8c1.9,0,3.1,0.8,3.1,4c0,3.3-1.2,4.1-3.1,4.1h-1.8V34.9
	L143.4,34.9z M145.4,41.7c1,0,1.3-0.7,1.3-2.8c0-2-0.3-2.7-1.4-2.7h-0.4v5.5L145.4,41.7L145.4,41.7z M152,34.9h3.8v1.3h-2.2v1.9h1.6
	v1.2h-1.6v2.4h2.3V43H152V34.9L152,34.9z M158,43h-1.3l1.8-8.1h1.5l1.8,8.1h-1.5l-0.4-1.8h-1.6L158,43z M159.6,39.4
	c-0.2-0.9-0.3-1.4-0.4-2.6h0c-0.1,1.2-0.3,1.7-0.4,2.6l-0.1,0.8h1.2L159.6,39.4z M167.5,43H166l-1-2.9h-0.6V43h-1.5v-8.1h2
	c1.5,0,2.5,0.7,2.5,2.6c0.1,0.9-0.3,1.7-1,2.2L167.5,43z M164.9,38.9c0.7,0,1-0.3,1-1.4c0-1-0.3-1.3-1-1.3h-0.5v2.7H164.9z
	 M169.8,36.2h-1.5v-1.3h4.5v1.3h-1.5V43h-1.6V36.2L169.8,36.2z M174,34.9h1.5v3.2h1.7v-3.2h1.6V43h-1.6v-3.6h-1.7V43H174V34.9
	L174,34.9z M181.9,42.9c-1.2-0.3-1.9-1.5-1.9-4c0-3,1.1-4.1,2.6-4.1s2.6,1.2,2.6,4.1c0,2.6-0.8,3.8-2,4c0,0.5,0.3,0.9,0.8,0.9
	c0.1,0,0.2,0,0.3,0h0.3v1.3H184C182.3,45.2,181.9,44.2,181.9,42.9L181.9,42.9z M183.7,38.9c0-1.9-0.3-2.8-1-2.8s-1.1,0.9-1.1,2.8
	s0.3,2.8,1.1,2.8S183.7,40.8,183.7,38.9L183.7,38.9z M186.5,40.4v-5.6h1.5v5.4c0,1,0.2,1.4,0.8,1.4s0.8-0.4,0.8-1.4v-5.5h1.4v5.5
	c0,1.7-0.6,2.7-2.3,2.7C187.1,43.1,186.5,42.1,186.5,40.4L186.5,40.4z M193.4,43h-1.3l1.8-8.1h1.5l1.8,8.1h-1.5l-0.4-1.8h-1.6
	L193.4,43z M195,39.4c-0.2-0.9-0.3-1.4-0.4-2.6h0c-0.1,1.2-0.3,1.7-0.4,2.6l-0.1,0.8h1.2L195,39.4z M198.3,34.9h1.5v3.7
	c0.2-0.6,0.4-1.2,0.7-1.8l0.9-1.9h1.5l-1.6,3.2l1.8,4.9h-1.6l-1.3-3.5l-0.5,1V43h-1.5V34.9L198.3,34.9z M204.2,34.9h3.8v1.3h-2.2
	v1.9h1.6v1.2h-1.6v2.4h2.3V43h-3.9L204.2,34.9L204.2,34.9z M211.7,34.9h3.8v1.3h-2.2v1.9h1.6v1.2h-1.6v2.4h2.3V43h-3.9V34.9
	L211.7,34.9z M216.8,34.9h1.6l1.3,3.4c0.2,0.6,0.4,1.1,0.5,1.6h0v-5h1.2V43h-1.3l-1.6-4c-0.2-0.6-0.5-1.3-0.6-1.6h0V43h-1.2
	L216.8,34.9L216.8,34.9z M222.8,38.9c0-2.8,0.9-4.1,2.5-4.1c1.4,0,2,0.9,2.3,3l-1.4,0.2c-0.1-1.3-0.4-1.8-0.9-1.8
	c-0.7,0-1,0.7-1,2.8s0.4,2.9,1.1,2.9c0.6,0,0.9-0.5,1-1.6h-0.9V39h2.3v4h-1l0-1h0c-0.2,0.7-0.8,1.1-1.5,1.1
	C223.5,43.1,222.8,41.7,222.8,38.9z M229.2,34.9h1.5V43h-1.5V34.9z M232.4,34.9h1.6l1.3,3.4c0.2,0.6,0.4,1.1,0.5,1.6h0v-5h1.2V43
	h-1.3l-1.6-4c-0.2-0.6-0.5-1.3-0.6-1.6h0V43h-1.2L232.4,34.9L232.4,34.9z M238.6,34.9h3.8v1.3h-2.2v1.9h1.6v1.2h-1.6v2.4h2.3V43
	h-3.9L238.6,34.9L238.6,34.9z M243.7,34.9h3.8v1.3h-2.2v1.9h1.6v1.2h-1.6v2.4h2.3V43h-3.9V34.9L243.7,34.9z M253.4,43h-1.5l-1-2.9
	h-0.6V43h-1.5v-8.1h2c1.5,0,2.5,0.7,2.5,2.6c0.1,0.9-0.3,1.7-1,2.2L253.4,43z M250.8,38.9c0.7,0,1-0.3,1-1.4c0-1-0.3-1.3-1-1.3h-0.5
	v2.7H250.8L250.8,38.9z M254.8,34.9h1.5V43h-1.5L254.8,34.9L254.8,34.9z M257.9,34.9h1.6l1.3,3.4c0.2,0.6,0.4,1.1,0.5,1.6h0v-5h1.2
	V43h-1.3l-1.6-4c-0.2-0.6-0.5-1.3-0.6-1.6h0V43h-1.2L257.9,34.9L257.9,34.9z M263.9,38.9c0-2.8,0.9-4.1,2.5-4.1c1.4,0,2,0.9,2.3,3
	l-1.4,0.2c-0.1-1.3-0.4-1.8-0.9-1.8c-0.7,0-1,0.7-1,2.8s0.4,2.9,1.1,2.9c0.6,0,0.9-0.5,1-1.6h-0.9V39h2.3v4h-1l0-1h0
	c-0.2,0.7-0.8,1.1-1.5,1.1C264.6,43.1,263.9,41.7,263.9,38.9L263.9,38.9z M272.4,40.6l1.3-0.2c0.2,0.9,0.4,1.4,1.1,1.4
	c0.4,0,0.7-0.3,0.7-0.7c0,0,0-0.1,0-0.1c0-1.4-3-2-3-4.2c-0.1-1.1,0.8-2,1.9-2.1c0.1,0,0.2,0,0.3,0c1.4,0,1.9,0.9,2.2,2.3l-1.4,0.3
	c-0.2-0.8-0.4-1.3-0.9-1.3c-0.3,0-0.6,0.2-0.6,0.5c0,0,0,0.1,0,0.1c0,1.4,3,2,3,4.2c0,1.1-0.9,2.1-2,2.1c-0.1,0-0.2,0-0.2,0
	C273.2,43.1,272.7,42,272.4,40.6L272.4,40.6z M278.1,38.9c0-3,1.1-4.1,2.6-4.1s2.6,1.2,2.6,4.1s-1.1,4.1-2.6,4.1
	S278.1,41.9,278.1,38.9L278.1,38.9z M281.8,38.9c0-1.9-0.3-2.8-1-2.8s-1.1,0.9-1.1,2.8s0.3,2.8,1.1,2.8S281.8,40.8,281.8,38.9
	L281.8,38.9z M284.7,34.9h3.8v1.3h-2.2v2h1.6v1.2h-1.6V43h-1.5L284.7,34.9L284.7,34.9z M290.6,36.2h-1.5v-1.3h4.5v1.3h-1.5V43h-1.6
	V36.2z M294.4,34.9h1.5l0.5,3.2c0.1,0.8,0.2,1.3,0.3,2.4h0c0.1-1,0.2-1.6,0.3-2.4l0.5-3.2h1.3l0.5,3.2c0.1,0.8,0.2,1.4,0.3,2.4h0
	c0.1-1,0.2-1.6,0.3-2.3l0.5-3.2h1.3l-1.4,8.1h-1.3l-0.9-5.4h0l-0.9,5.4h-1.3L294.4,34.9z M303.6,43h-1.3l1.8-8.1h1.5l1.8,8.1h-1.5
	l-0.4-1.8H304L303.6,43z M305.2,39.4c-0.2-0.9-0.3-1.4-0.4-2.6h0c-0.1,1.2-0.3,1.7-0.4,2.6l-0.1,0.8h1.2L305.2,39.4z M313.1,43h-1.5
	l-1-2.9H310V43h-1.5v-8.1h2c1.5,0,2.5,0.7,2.5,2.6c0.1,0.9-0.3,1.7-1,2.2L313.1,43z M310.5,38.9c0.7,0,1-0.3,1-1.4
	c0-1-0.3-1.3-1-1.3H310v2.7H310.5L310.5,38.9z M314.4,34.9h3.8v1.3h-2.2v1.9h1.6v1.2h-1.6v2.4h2.3V43h-3.9V34.9L314.4,34.9z"/>
</svg>
