<?xml version="1.0" encoding="utf-8"?>
<!-- Generator: Adobe Illustrator 27.7.0, SVG Export Plug-In . SVG Version: 6.00 Build 0)  -->
<svg version="1.1" xmlns="http://www.w3.org/2000/svg" xmlns:xlink="http://www.w3.org/1999/xlink" x="0px" y="0px" width="339px"
	 height="100px" viewBox="0 0 339 100" style="enable-background:new 0 0 339 100;" xml:space="preserve">
<g id="Layer_1">
	<g>
		<g>
			<path style="fill:#F7941D;" d="M0,0v100h100V0H0z"/>
			<path style="fill:#FFFFFF;" d="M79.8082809,41.4213333L54.2136993,62.7873344
				c-2.4428711,2.0402794-5.9786453,2.0413246-8.4235992,0.0030212L29.7151413,49.384449
				c-0.640831-0.5345726-0.9316235-1.3834572-0.7541237-2.2019997l1.2324524-5.6832771
				c0.1363678-0.6275826,0.8653984-0.9085312,1.3828983-0.5335846l14.8545628,10.7825203
				c2.1339035,1.5481415,5.011097,1.5481415,7.1440163-0.0030212l23.5458794-17.1146011
				c0.2276917-0.1657295,0.3219452-0.474987,0.2316055-0.7528534l-2.5450821-7.7862816
				c-0.0601044-0.1829395-0.198555-0.3304749-0.3781357-0.4001713l-22.0125351-8.5704689
				c-1.5524406-0.6053162-3.273201-0.6053162-4.8264961-0.0009861l-22.0226364,8.571455
				c-0.1785393,0.0696964-0.3179054,0.2172318-0.3780727,0.4001713l-8.4887848,26.0064125
				c-0.0801792,0.2455444-0.0160351,0.5144043,0.1655025,0.6972809L45.144371,81.2682419
				c2.7356834,2.7537155,6.9834137,2.7537155,9.7181168-0.0010452l28.2771378-28.4802322
				c0.1765213-0.1778831,0.2387085-0.4395866,0.1604843-0.6780968L79.8082809,41.4213333z M47.8228874,27.2974205
				c1.3909798-0.6457157,2.9693718-0.6457157,4.3612061,0l9.7723465,4.5353107l-9.3652,5.6793308
				c-1.6075287,0.9741554-3.5689507,0.9741554-5.1764755,0l-9.3642197-5.6793308L47.8228874,27.2974205z"/>
		</g>
		<g>
			<path style="fill:#1C1C1C;" d="M191.0972443,31.6665421c3.0571289,0,6.1523438-1.6791992,6.1523438-4.8896484
				c0-2.4438477-2.262207-3.7797852-4.5039062-4.0200195c-1.7480469-0.1977539-3.2250977-0.8647461-3.2250977-1.4545898
				c0-0.9106445,0.9873047-1.0463867,1.5766602-1.0463867c0.5576172,0,1.855957,0.1269531,1.855957,1.3012695
				c0,0.1010742,0.0742188,0.1826172,0.1650391,0.1826172h3.8022461c0.0913086,0,0.1650391-0.081543,0.1650391-0.1826172
				c0-2.8793945-2.4624023-4.890625-5.9882812-4.890625c-3.4702148,0-5.9892578,1.9926758-5.9892578,4.7373047
				c0,2.3745117,2.9643555,4.0014648,5.7539062,4.3261719c1.2358398,0.1542969,1.9750977,0.7319336,1.9750977,1.2001953
				c0,0.7451172-0.8964844,1.1474609-1.7397461,1.1474609c-0.3320312,0-1.9863281-0.0629883-1.9863281-1.3007812
				c0-0.1020508-0.0742188-0.1835938-0.1650391-0.1835938h-3.8359375c-0.0913086,0-0.1650391,0.081543-0.1650391,0.1835938
				C184.9449005,29.9873428,188.0401154,31.6665421,191.0972443,31.6665421z"/>
			<path style="fill:#1C1C1C;" d="M136.631424,31.2568741h3.7192383c0.1020508,0,0.1835938-0.081543,0.1835938-0.1826172v-6.934082
				c0-1.8061523,0.9399414-3.6293945,3.0410156-3.6293945s3.0410156,1.8354492,3.0410156,3.6552734v6.9082031
				c0,0.1010742,0.081543,0.1826172,0.1835938,0.1826172h3.7197266c0.1005859,0,0.1831055-0.081543,0.1831055-0.1826172v-6.9082031
				c0-4.2768555-3.0639648-7.5004883-7.1274414-7.5004883c-1.1147461,0-2.1586914,0.3530273-3.0410156,1.0244141v-7.590332
				c0-0.1015625-0.081543-0.1831055-0.1835938-0.1831055h-3.7192383c-0.1010742,0-0.1835938,0.081543-0.1835938,0.1831055
				v20.9746094C136.4478302,31.1753311,136.5303497,31.2568741,136.631424,31.2568741z"/>
			<path style="fill:#1C1C1C;" d="M159.6685333,16.6665421c-4.1611328,0-7.5478516,3.3647461-7.5478516,7.5004883
				c0,4.1352539,3.3867188,7.4995117,7.5478516,7.4995117c1.3808594,0,2.7285156-0.7041016,3.6948242-1.9077148l0.015625,1.3183594
				c0.0014648,0.1000977,0.0830078,0.1806641,0.1831055,0.1806641h3.472168c0.1005859,0,0.1826172-0.0820312,0.1826172-0.1826172
				v-6.9082031C167.2168732,20.0312881,163.831131,16.6665421,159.6685333,16.6665421z M159.7432404,27.8223038
				c-1.949707,0-3.5366211-1.6396484-3.5366211-3.6552734s1.5869141-3.6552734,3.5366211-3.6552734
				s3.5361328,1.6396484,3.5361328,3.6552734S161.6929474,27.8223038,159.7432404,27.8223038z"/>
			<path style="fill:#1C1C1C;" d="M176.2080841,31.6665421c4.175293,0,7.5737305-3.3642578,7.5737305-7.4995117
				c0-4.1357422-3.3984375-7.5004883-7.5737305-7.5004883c-4.1757812,0-7.5737305,3.3647461-7.5737305,7.5004883
				C168.6343536,28.3022842,172.0323029,31.6665421,176.2080841,31.6665421z M176.2080841,20.5117569
				c1.9223633,0,3.4873047,1.6396484,3.4873047,3.6552734s-1.5649414,3.6552734-3.4873047,3.6552734
				c-1.9228516,0-3.4868164-1.6396484-3.4868164-3.6552734S174.2852325,20.5117569,176.2080841,20.5117569z"/>
			<path style="fill:#1C1C1C;" d="M130.5034943,31.0430069c3.137207-1.3613281,4.8706055-4.6040039,4.4545898-7.8291016
				c-0.027832-0.2192383-0.2612305-0.3500977-0.465332-0.262207l-3.1386719,1.3623047
				c-0.1113281,0.0493164-0.1845703,0.1542969-0.1982422,0.2758789c-0.1479492,1.2539062-0.9399414,2.3984375-2.1835938,2.9384766
				c-1.9311523,0.8378906-4.1889648-0.1108398-4.9189453-2.1176758c-0.640625-1.7631836,0.1894531-3.762207,1.8891602-4.5600586
				c1.2700195-0.5961914,2.6958008-0.4042969,3.7426758,0.3647461c0.0991211,0.0717773,0.2260742,0.0917969,0.3378906,0.0419922
				l3.1386719-1.3618164c0.203125-0.0878906,0.2666016-0.3481445,0.1264648-0.5175781
				c-2.1645508-2.6054688-5.9296875-3.5234375-9.1547852-1.9106445c-3.4399414,1.7202148-5.0253906,5.840332-3.6264648,9.4174805
				C122.065506,30.8706436,126.608963,32.7329483,130.5034943,31.0430069z"/>
			<path style="fill:#1C1C1C;" d="M119.999588,83.3337555V46.6665421h25.1580353v7.3334427h-17.0097656v7.2318459h13.9536438
				v7.3334465h-13.9536438v7.4350357h17.0097656v7.3334427H119.999588z"/>
			<path style="fill:#1C1C1C;" d="M178.2152252,69.5832901v13.7504654h-7.6382294V69.5832901
				c0-4.227562-2.3926392-7.6382256-6.6222839-7.6382256c-4.2254791,0-6.6181335,3.4106636-6.6181335,7.6382256v13.7504654
				h-7.6382294V69.5832901c0-8.0466766,5.8053894-14.5652924,14.2563629-14.5652924
				C172.4098358,55.0179977,178.2152252,61.5366135,178.2152252,69.5832901z"/>
			<path style="fill:#1C1C1C;" d="M204.3601837,74.7791061c0,5.9069748-5.2994843,9.3694763-11.2043915,9.3694763
				c-5.9090424,0-11.2043915-3.4625015-11.2043915-9.3694763h7.6382294c0,2.3408127,1.8825989,2.9524536,3.5661621,2.9524536
				c1.6794128,0,3.5620117-0.8645859,3.5620117-2.6476669c0-1.2730408-1.6794128-2.4444809-3.9725342-2.7513428
				c-5.3450928-0.6613922-10.4870148-3.9207001-10.4870148-8.2498627c0-5.6001205,4.9884949-9.0646896,10.8975372-9.0646896
				c5.9049072,0,10.8975372,3.4645691,10.8975372,9.3715515h-7.6382294c0-2.3428917-1.579895-2.9545288-3.2593079-2.9545288
				c-1.6835632,0-3.2593079,0.6116371-3.2593079,2.4444809c0,1.6296539,3.3588257,2.9026947,6.3154297,3.2593079
				C200.2342072,67.597023,204.3601837,70.1430969,204.3601837,74.7791061z"/>
			<path style="fill:#1C1C1C;" d="M214.8198395,69.5832901c0,4.227562,3.412735,7.6382217,7.6382294,7.6382217
				c2.8529205,0,5.245575-1.5778198,6.5186157-3.8688736h8.1980286
				c-1.7291718,6.2117615-7.6382294,10.7959442-14.7166443,10.7959442c-8.4551239,0-15.2764587-6.5186157-15.2764587-14.5652924
				s6.8213348-14.5652924,15.2764587-14.5652924c7.1281738,0,13.1408997,4.6857758,14.8203125,11.0012054h-8.0487518
				c-1.3227997-2.4444847-3.8191071-4.0741386-6.7715607-4.0741386
				C218.2325745,61.9450645,214.8198395,65.3557281,214.8198395,69.5832901z"/>
			<path style="fill:#1C1C1C;" d="M270.23172,69.5832901v13.7504654h-7.1323242v-3.412735
				c-1.729187,2.5460739-4.685791,4.227562-7.9948425,4.227562c-8.3514557,0-15.1230164-6.5186157-15.1230164-14.5652924
				s6.7715607-14.5652924,15.1230164-14.5652924C263.4559937,55.0179977,270.23172,61.5366135,270.23172,69.5832901z
				 M262.8962097,69.5832901c0-4.227562-3.4127502-7.6382256-7.6382294-7.6382256
				c-4.2254944,0-7.6382294,3.4106636-7.6382294,7.6382256s3.412735,7.6382217,7.6382294,7.6382217
				C259.4834595,77.2215118,262.8962097,73.8108521,262.8962097,69.5832901z"/>
			<path style="fill:#1C1C1C;" d="M304.9313354,69.5832901c0,8.0466766-6.7757263,14.5652924-15.1271973,14.5652924
				c-2.9026794,0-5.5482788-1.1714478-7.4847717-3.0561218v11.4075775h-7.6382446v-22.916748
				c0-8.0466766,6.7715759-14.5652924,15.1230164-14.5652924C298.1556091,55.0179977,304.9313354,61.5366135,304.9313354,69.5832901
				z M297.2930908,69.5832901c0-4.227562-3.4127197-7.6382256-7.6423645-7.6382256
				c-4.2254944,0-7.6382141,3.4106636-7.6382141,7.6382256s3.4127197,7.6382217,7.6382141,7.6382217
				C293.8803711,77.2215118,297.2930908,73.8108521,297.2930908,69.5832901z"/>
			<path style="fill:#1C1C1C;" d="M338.1394043,69.5832901c0,0.91642-0.0995483,1.7830811-0.2529602,2.6476669h-22.2055969
				c1.1237488,2.9026947,3.8730164,4.9905548,7.1820984,4.9905548c2.4424133,0,4.6360168-1.1693649,6.0085754-2.952446h8.4551086
				c-2.0360107,5.7535477-7.7418823,9.8795166-14.4636841,9.8795166c-8.4551392,0-15.2764587-6.5186157-15.2764587-14.5652924
				s6.8213196-14.5652924,15.2764587-14.5652924C331.3180542,55.0179977,338.1394043,61.5366135,338.1394043,69.5832901z
				 M330.0450134,66.9356232c-1.1237488-2.9026947-3.92276-4.9905586-7.1820679-4.9905586
				c-3.309082,0-6.0583496,2.0878639-7.1820984,4.9905586H330.0450134z"/>
		</g>
	</g>
</g>
</svg>