<?xml version="1.0" encoding="utf-8"?>
<!-- Generator: Adobe Illustrator 27.2.0, SVG Export Plug-In . SVG Version: 6.00 Build 0)  -->
<svg version="1.1" id="Layer_1" xmlns="http://www.w3.org/2000/svg" xmlns:xlink="http://www.w3.org/1999/xlink" x="0px" y="0px"
	 viewBox="0 0 512 512" style="enable-background:new 0 0 512 512;" xml:space="preserve">
<style type="text/css">
	.st0{fill:#B8D6ED;}
</style>
<g>
	<path class="st0" d="M39.11,271.13h-6.98H0c0,17.72,14.38,32.06,32.13,32.06h17.98h21.13C71.24,285.48,56.8,271.13,39.11,271.13z"
		/>
	<path class="st0" d="M0,239.07V207c17.75,0,32.13,14.35,32.13,32.06v32.06C14.38,271.13,0,256.73,0,239.07z"/>
	<path class="st0" d="M104.36,303.19V207c8.9,0,16.18,7.2,16.18,16.09v80.04L104.36,303.19z"/>
	<path class="st0" d="M186.19,236.28c8.9,0,16.18,7.2,16.18,16.15v18.7c0,5.58-0.81,10.51-2.39,14.7
		c-1.57,4.18-3.84,7.73-6.69,10.57c-2.91,2.85-6.4,5-10.48,6.45c-4.07,1.45-8.61,2.15-13.56,2.15s-9.49-0.7-13.56-2.09
		c-4.07-1.39-7.57-3.54-10.48-6.39c-2.91-2.85-5.12-6.39-6.69-10.63c-1.57-4.24-2.39-9.18-2.39-14.75v-34.79
		c8.9,0,16.18,7.2,16.18,16.15v18.7c0,6.39,1.51,11.15,4.6,14.23c3.08,3.08,7.22,4.59,12.34,4.59c5.12,0,9.25-1.51,12.34-4.59
		c3.08-3.08,4.6-7.84,4.6-14.23V236.28z"/>
	<path class="st0" d="M258.94,303.2v-38.22c0-5.4-1.28-9.35-3.9-11.79c-2.56-2.44-5.82-3.66-9.72-3.66c-3.96,0-7.22,1.22-9.78,3.6
		c-2.56,2.38-3.78,6.33-3.78,11.85v38.22h-16.12v-38.22c0-5.23,0.7-9.76,2.15-13.59c1.46-3.83,3.43-6.97,5.88-9.47
		c2.5-2.5,5.47-4.36,8.9-5.58c3.43-1.22,7.16-1.8,11.12-1.8c5.06,0,9.54,1.05,13.5,3.02c3.96,2.03,7.1,4.94,9.55,8.71h0.29
		c2.33-3.78,5.53-6.68,9.43-8.71c3.9-2.03,8.5-3.02,13.62-3.02c3.96,0,7.68,0.58,11.12,1.8c3.43,1.22,6.4,3.08,8.9,5.58
		c2.5,2.5,4.48,5.63,5.88,9.47c1.46,3.83,2.15,8.36,2.15,13.59v38.22h-16.18v-38.22c0-5.52-1.28-9.47-3.78-11.85
		c-2.5-2.38-5.82-3.6-9.78-3.6c-3.9,0-7.1,1.22-9.66,3.66c-2.56,2.44-3.78,6.39-3.78,11.79v38.22H258.94z"/>
	<path class="st0" d="M333.85,303.19v-66.91c8.9,0,16.18,7.2,16.18,16.15v50.82L333.85,303.19z"/>
	<path class="st0" d="M435.12,269.74c0,5.05-0.87,9.76-2.62,14.11c-1.75,4.36-4.25,8.07-7.45,11.15c-3.2,3.08-7.04,5.58-11.46,7.32
		c-4.42,1.74-9.25,2.61-14.55,2.61c-5.36,0-10.19-0.87-14.61-2.61c-4.42-1.74-8.21-4.18-11.41-7.32c-3.2-3.14-5.7-6.85-7.45-11.15
		c-1.75-4.3-2.62-9-2.62-14.11c0-5.05,0.87-9.76,2.62-14.06c1.75-4.36,4.25-8.07,7.45-11.15c3.2-3.08,6.98-5.58,11.41-7.32
		c4.37-1.74,9.25-2.61,14.61-2.61c5.24,0,10.07,0.87,14.55,2.61c4.42,1.74,8.26,4.18,11.46,7.32c3.2,3.14,5.7,6.85,7.45,11.15
		C434.24,259.98,435.12,264.68,435.12,269.74z M399.03,289.89c5.99,0,10.77-1.86,14.32-5.63c3.55-3.78,5.35-8.6,5.35-14.58
		c0-5.98-1.8-10.8-5.35-14.58c-3.55-3.78-8.32-5.63-14.32-5.63c-6,0-10.77,1.86-14.38,5.63c-3.61,3.78-5.41,8.6-5.41,14.58
		c0,5.98,1.8,10.8,5.41,14.58C388.26,288.03,393.04,289.89,399.03,289.89z"/>
	<path class="st0" d="M495.82,303.2V268.4c0-6.39-1.57-11.15-4.6-14.23c-3.08-3.08-7.22-4.59-12.34-4.59
		c-5.12,0-9.25,1.51-12.34,4.59c-3.08,3.08-4.6,7.84-4.6,14.23v34.79h-16.18V268.4c0-5.58,0.81-10.51,2.39-14.7
		c1.57-4.18,3.84-7.73,6.69-10.57c2.91-2.85,6.4-5,10.48-6.45c4.07-1.45,8.61-2.15,13.56-2.15c5.01,0,9.49,0.7,13.56,2.09
		c4.07,1.39,7.57,3.54,10.48,6.39c2.91,2.85,5.12,6.39,6.69,10.63c1.57,4.24,2.39,9.18,2.39,14.75v34.79H495.82z"/>
</g>
</svg>
