<?xml version="1.0" encoding="UTF-8"?> <svg xmlns="http://www.w3.org/2000/svg" width="100" height="100" viewBox="0 0 100 100"><g id="f5b445d1-ef2d-45c0-9a9f-9164c4c80d85" data-name="OpenFlows"><path d="M82.49,61.17C81,45.69,69.63,29.67,60.86,17.25,57.58,12.6,54.24,8,51,3.28c-1.22-1.77-.81-1.78-2,0-3.22,4.7-6.56,9.32-9.85,14C30.37,29.67,19,45.69,17.51,61.17A34,34,0,0,0,27.78,89a31.77,31.77,0,0,0,44.57-.13A34,34,0,0,0,82.49,61.17ZM62.3,78.56a18.68,18.68,0,0,1-2.6,2.12c-2.19,1.48-1.48.92-.41-.59a23.63,23.63,0,0,0,1.49-2.36C68,64.87,59.16,52.61,55.91,38.67c-1.31-5.58-1.08-5,1.7-.68,5.1,8,9.79,16.9,10.55,24.6A19.65,19.65,0,0,1,62.3,78.56Z" style="fill-rule:evenodd"></path></g></svg> 